<svg width="245" height="300" viewBox="0 0 245 300" fill="none" xmlns="http://www.w3.org/2000/svg">
<path d="M198.852 66.1842C195.724 69.0355 192.527 72.0611 189.376 75.265C184.079 41.6925 176.551 19.87 176.551 19.87L165.477 22.8762C160.335 40.4412 138.536 48.6425 138.536 48.6425C115.816 56.472 99.8168 42.3472 99.8168 42.3472L76.6606 50.9669C122.818 138.4 119.099 209.869 119.099 209.869C107.26 123.993 53.0868 42.107 53.0868 42.107L103.513 24.6738C115.267 43.3157 132.775 38.3802 132.775 38.3802C156.039 31.802 151.38 9.96017 151.38 9.96017L184.492 0C191.889 24.1004 196.378 46.2948 198.848 66.1842H198.852Z" fill="#5DBDF0"/>
<path d="M192.415 176.075C194.866 153.424 194.843 131.625 193.486 111.867C195.937 107.811 198.585 103.623 201.389 99.3886C202.657 147.83 192.415 176.075 192.415 176.075Z" fill="#5DBDF0"/>
<path d="M70.4044 79.2128C70.4044 79.2128 56.8602 99.0866 29.7756 85.2447L4.60498 109.779C4.60498 109.779 80.2522 146.923 106.243 197.36C106.243 197.36 100.497 155.965 25.2596 106.626L33.2864 96.9404C33.2864 96.9404 64.9295 106.49 70.4044 79.2128Z" fill="#186CA8"/>
<path d="M41.0386 133.674C41.0386 133.674 40.4895 155.787 9.85174 157.065L0 187.217C0 187.217 76.6023 185.938 119.648 215.362C119.648 215.362 86.454 179.542 15.6862 176.435L17.8746 163.825C17.8746 163.825 45.6899 162.636 41.0386 133.674Z" fill="#5DBDF0"/>
<path d="M207.47 142.263C207.47 142.263 262.459 141.166 169.714 194.895C169.714 194.895 122.11 224.226 80.7972 223.68C80.7972 223.68 61.434 224.648 80.7972 205.863C80.7972 205.863 41.2202 234.554 77.3329 238.207C77.3329 238.207 119.647 239.122 164.897 215.753C164.897 215.753 251.787 176.257 242.759 150.762C242.759 150.762 240.389 186.307 139.343 222.126C139.343 222.126 233.82 180.461 238.564 151.584C238.564 151.584 241.116 136.235 207.466 142.263H207.47Z" fill="#5DBDF0"/>
<path d="M117.482 108.903C117.482 108.903 140.828 128.823 155.238 156.6C155.238 156.6 161.258 163.547 164.723 152.761C164.723 152.761 195.183 79.5689 244.975 39.8212C244.975 39.8212 186.974 72.9907 158.796 126.716C158.796 126.716 144.296 102.867 139.463 98.5711C139.463 98.5711 135.543 94.8249 117.486 108.895L117.482 108.903Z" fill="#5DBDF0"/>
<path d="M214.682 262.86H210.743V259.212H223.146V262.86H219.644L226.794 274.68L234.09 262.86H230.442V259.212H242.115V262.86H238.54L228.837 278.036L239.197 294.962H242.845V298.61H230.442V294.962H234.163L225.918 281.465L217.966 294.962H221.687V298.61H210.013V294.962H213.515L223.948 278.182L214.682 262.86Z" fill="white"/>
<path d="M194.715 294.962H199.093V262.86H194.715V259.212H207.848V262.86H203.47V294.962H207.848V298.61H194.715V294.962Z" fill="white"/>
<path d="M169.907 294.962H175.014V262.86H166.988V268.697H163.122V259.212H191.284V268.697H187.417V262.86H179.392V294.962H184.499V298.61H169.907V294.962Z" fill="white"/>
<path d="M158.969 293.138V297.078C156.537 298.586 153.692 299.34 150.433 299.34C146.591 299.34 143.575 298.051 141.386 295.473C139.246 292.895 138.176 289.296 138.176 284.675C138.176 279.908 139.319 276.187 141.605 273.512C143.891 270.788 146.761 269.426 150.214 269.426C153.035 269.426 155.321 270.545 157.072 272.783C158.823 275.02 159.699 278.206 159.699 282.34V284.602H142.699C142.797 288.007 143.453 290.658 144.669 292.555C145.934 294.451 147.928 295.449 150.652 295.546C153.668 295.546 156.44 294.743 158.969 293.138ZM155.321 281.1C155.321 278.327 154.811 276.309 153.789 275.044C152.768 273.731 151.333 273.074 149.485 273.074C147.685 273.074 146.177 273.755 144.961 275.117C143.745 276.431 143.016 278.425 142.772 281.1H155.321Z" fill="white"/>
<path d="M118.131 294.962H121.779V273.804H118.131V270.156H125.938L126.157 274.242H126.303C127.227 272.685 128.248 271.542 129.367 270.813C130.486 270.083 131.823 269.718 133.38 269.718C133.964 269.718 134.474 269.767 134.912 269.864V274.461C134.182 274.315 133.428 274.242 132.65 274.242C131.24 274.242 129.999 274.582 128.929 275.263C127.908 275.896 126.984 276.941 126.157 278.4V294.962H130.534V298.61H118.131V294.962Z" fill="white"/>
<path d="M90.0441 284.529C90.0441 279.908 91.1628 276.236 93.4003 273.512C95.6863 270.788 98.5561 269.426 102.009 269.426C105.463 269.426 108.211 270.691 110.254 273.22C112.345 275.75 113.391 279.3 113.391 283.872C113.391 288.542 112.297 292.287 110.108 295.108C107.919 297.929 105.049 299.34 101.499 299.34C97.9967 299.34 95.1999 298.002 93.1084 295.327C91.0656 292.603 90.0441 289.004 90.0441 284.529ZM94.6406 283.872C94.6406 287.715 95.2486 290.658 96.4646 292.7C97.7292 294.695 99.5288 295.692 101.864 295.692C104.052 295.692 105.755 294.768 106.971 292.919C108.187 291.022 108.795 288.153 108.795 284.31C108.795 276.82 106.411 273.074 101.645 273.074C99.3586 273.074 97.6076 273.95 96.3916 275.701C95.2242 277.403 94.6406 280.127 94.6406 283.872Z" fill="white"/>
<path d="M84.5786 297.516C82.2439 298.732 79.6904 299.34 76.9179 299.34C72.9781 299.34 69.8652 298.075 67.5791 295.546C65.2931 293.017 64.15 289.393 64.15 284.675C64.15 279.908 65.3417 276.187 67.725 273.512C70.157 270.788 73.2943 269.426 77.1368 269.426C79.812 269.426 82.2926 269.986 84.5786 271.105V278.182H80.7118V273.731C79.6417 273.293 78.3284 273.074 76.772 273.074C74.0482 273.074 72.0296 273.95 70.7164 275.701C69.4031 277.403 68.7465 280.127 68.7465 283.872C68.7465 287.861 69.4517 290.804 70.8623 292.7C72.2728 294.597 74.3157 295.546 76.9909 295.546C79.6174 295.546 82.1467 294.889 84.5786 293.576V297.516Z" fill="white"/>
<path d="M32.7753 294.962H36.4233V273.804H32.7753V270.156H40.509L40.7279 273.95H40.8009C43.4274 270.934 46.443 269.426 49.8478 269.426C52.2798 269.426 54.0551 270.132 55.1738 271.542C56.2925 272.904 56.8519 274.85 56.8519 277.379V294.962H60.4999V298.61H49.556V294.962H52.4743V277.963C52.4743 276.017 52.1339 274.728 51.4529 274.096C50.772 273.415 49.8235 273.074 48.6075 273.074C45.7864 273.074 43.1842 274.582 40.8009 277.598V294.962H43.7192V298.61H32.7753V294.962Z" fill="white"/>
<path d="M24.5288 294.962V289.855H28.3957V298.61H2.13031V294.962H6.50787V262.86H2.13031V259.212H27.6661V267.967H23.7992V262.86H10.8854V276.722H18.1814V273.074H21.8293V284.748H18.1814V280.37H10.8854V294.962H24.5288Z" fill="white"/>
</svg>
